<svg xmlns="http://www.w3.org/2000/svg" data-name="Layer 1" viewBox="0 0 98 98"><g data-name="&lt;Group&gt;"><path d="M66.1,16.3A22.2,22.2,0,0,0,49,24.2a21.9,21.9,0,0,0-17.1-7.9A22.4,22.4,0,0,0,9.5,38.7c0,21.2,37,41.9,38.5,42.7a1.8,1.8,0,0,0,2,0c1.5-.8,38.5-21.2,38.5-42.7A22.4,22.4,0,0,0,66.1,16.3ZM49,77.4C43.2,74,13.5,55.9,13.5,38.7A18.4,18.4,0,0,1,31.9,20.3a18,18,0,0,1,15.4,8.3,2.1,2.1,0,0,0,3.4,0A18.4,18.4,0,0,1,84.5,38.7C84.5,56.1,54.8,74.1,49,77.4Z" data-name="&lt;Compound Path&gt;"/></g></svg>